<?xml version="1.0" encoding="UTF-8"?>
<svg id="Capa_1" data-name="Capa 1" xmlns="http://www.w3.org/2000/svg" xmlns:xlink="http://www.w3.org/1999/xlink" viewBox="0 0 622.25 177.07">
  <defs>
    <style>
      .cls-1 {
        fill: #1d1d1b;
      }

      .cls-2 {
        fill: url(#Degradado_sin_nombre_3);
      }

      .cls-3 {
        fill: #0057a3;
      }
    </style>
    <linearGradient id="Degradado_sin_nombre_3" data-name="Degradado sin nombre 3" x1="605.07" y1="60.94" x2="561.25" y2="17.13" gradientUnits="userSpaceOnUse">
      <stop offset="0" stop-color="#0057a3"/>
      <stop offset=".28" stop-color="#0057a3"/>
      <stop offset=".69" stop-color="#0093ce"/>
      <stop offset="1" stop-color="#0093ce"/>
    </linearGradient>
  </defs>
  <path class="cls-2" d="M603.67,39.76c0,11.31-8.87,20.48-19.81,20.48s-19.76-9.17-19.76-20.48,8.85-20.54,19.76-20.54,19.81,9.17,19.81,20.54M614.85,39.76c0-17.77-13.87-32.07-30.99-32.07s-30.97,14.3-30.97,32.07,13.85,32.01,30.97,32.01,30.99-14.29,30.99-32.01"/>
  <path class="cls-1" d="M7.4,50.2h32.44c19.52,0,34.12,12.69,34.12,38.52,0,22.58-11.16,39.37-34.12,39.37H7.4V50.2ZM23.93,113.71h14.79c9.59,0,18.74-6.16,18.74-23.39,0-15.68-5.27-25.69-21.73-25.69h-11.81v49.08Z"/>
  <rect class="cls-1" x="76.02" y="50.19" width="16.53" height="77.89"/>
  <path class="cls-1" d="M118.72,50.19h17.04l28.12,77.89h-17.18l-5.69-17.33h-28.16l-5.9,17.33h-16.77l28.55-77.89ZM117.19,98.01h19.49l-9.48-28.62h-.25l-9.77,28.62Z"/>
  <path class="cls-1" d="M160.94,50.19h35.43c14.31,0,24.03,4.84,24.03,19.31,0,7.64-3.69,13-10.24,16.29,9.16,2.71,13.81,10,13.81,19.76,0,15.77-12.96,22.53-26.54,22.53h-36.48V50.19ZM177.5,81.72h16.72c5.85,0,10.16-2.74,10.16-9.24,0-7.43-5.49-8.99-11.39-8.99h-15.48v18.24ZM177.5,114.77h17.71c6.54,0,12.22-2.13,12.22-10.19s-4.81-11.16-11.91-11.16h-18.02v21.35Z"/>
  <polygon class="cls-1" points="223.08 50.2 279.38 50.2 279.38 64.63 239.64 64.63 239.64 81.3 276.1 81.3 276.1 94.6 239.64 94.6 239.64 113.71 280.18 113.71 280.18 128.08 223.08 128.08 223.08 50.2"/>
  <polygon class="cls-1" points="300.14 64.64 277.59 64.64 277.59 50.2 339.25 50.2 339.25 64.64 316.72 64.64 316.72 128.07 300.14 128.07 300.14 64.64"/>
  <path class="cls-1" d="M337.38,50.2h40.59c13.46,0,22.02,9.72,22.02,21.51,0,9.2-3.61,16.04-11.92,19.52v.22c8.13,2.15,10.44,10.36,10.99,18.21.32,4.92.2,14.04,3.18,18.41h-16.59c-2.01-4.87-1.81-12.46-2.65-18.63-1.21-8.17-4.26-11.79-12.56-11.79h-16.55v30.41h-16.53V50.2ZM353.9,85.45h18.12c7.36,0,11.41-3.25,11.41-11.12s-4.05-10.84-11.41-10.84h-18.11v21.95Z"/>
  <rect class="cls-1" x="404.54" y="50.19" width="16.55" height="77.89"/>
  <path class="cls-1" d="M476.35,76.33c-1.07-7.7-8.21-13.56-16.44-13.56-14.84,0-20.44,13.07-20.44,26.69s5.6,26.11,20.44,26.11c10.14,0,15.81-7.21,17.08-17.44h16.03c-1.69,19.4-14.69,31.85-33.11,31.85-23.29,0-37.01-18.02-37.01-40.51s13.71-41.11,37.01-41.11c16.5,0,30.45,10,32.47,27.97h-16.03Z"/>
  <path class="cls-1" d="M507.7,102.24c0,10.4,7.77,14.4,16.61,14.4,5.8,0,14.65-1.77,14.65-9.7,0-8.42-11.26-9.78-22.35-12.86-11.17-3.1-22.45-7.54-22.45-22.2,0-15.92,14.56-23.52,28.14-23.52,15.7,0,30.21,7.11,30.21,25.11h-16.07c-.53-9.41-6.93-11.8-14.85-11.8-5.24,0-11.38,2.3-11.38,8.8,0,6.04,3.58,6.8,22.45,11.79,5.48,1.42,22.37,5.06,22.37,22.69,0,14.3-10.9,25.01-31.31,25.01-16.65,0-32.28-8.52-32.05-27.71h16.04Z"/>
  <g>
    <path class="cls-3" d="M13.7,160.7c.04,2.84,1.39,4.27,4.04,4.27s4-1.38,4-3.87-1.65-3.79-4.82-3.79c-.27,0-.52.05-.78.05v-3.51h.55c2.95,0,4.33-1.12,4.33-3.46,0-1.98-1.31-3.18-3.35-3.18-2.2,0-3.52,1.33-3.52,3.8v.21h-4.8c.12-5.16,3.16-8,8.55-8s8.28,2.7,8.28,6.82c0,2.19-1.02,3.9-3.05,4.98,2.62,1.12,3.96,3.14,3.96,5.88,0,5.02-3.52,8.22-9.33,8.22s-8.91-2.98-8.91-8.28v-.11h4.87Z"/>
    <path class="cls-3" d="M39.73,151.99c4.99,0,8.21,3.26,8.21,8.28,0,5.31-3.54,8.85-8.9,8.85-6.17,0-9.44-4.28-9.44-12.44,0-8.81,3.56-13.54,9.98-13.54,4.5,0,7.46,2.5,7.71,6.46h-5.15c-.23-1.62-1.24-2.44-3.14-2.44-2.53,0-3.91,2.19-4.1,6.59,1.17-1.15,2.8-1.77,4.83-1.77M39.04,165.07c2.33,0,3.74-1.7,3.74-4.66,0-2.75-1.44-4.3-3.93-4.3s-3.88,1.59-3.88,4.27c0,2.93,1.61,4.69,4.07,4.69"/>
    <path class="cls-3" d="M57.99,151.13h-6.07v-3.52h.4c4.29,0,6.25-1.16,6.61-4.45h4.07v25.24h-5.02v-17.27Z"/>
    <path class="cls-3" d="M78.15,141.68c2.4,0,3.96,1.64,3.96,4.23s-1.56,4.22-3.96,4.22-3.95-1.65-3.95-4.22,1.54-4.23,3.95-4.23M78.15,148.71c1.41,0,2.27-1.01,2.27-2.79s-.85-2.8-2.27-2.8-2.26,1.03-2.26,2.8.84,2.79,2.26,2.79"/>
    <polygon class="cls-3" points="100.39 143.71 117.62 143.71 117.62 146.78 103.66 146.78 103.66 154.25 116.54 154.25 116.54 157.17 103.66 157.17 103.66 165.54 117.9 165.54 117.9 168.66 100.39 168.66 100.39 143.71"/>
    <path class="cls-3" d="M124.87,143.71h3.6l11.27,18.11c.44.69.84,1.42,1.12,2.1v-20.21h3.11v24.95h-3.55l-11.51-18.41c-.36-.52-.64-1.11-.91-1.83v20.25h-3.13v-24.95Z"/>
    <polygon class="cls-3" points="164.42 143.71 180.64 143.71 180.64 146.81 167.71 146.81 167.71 154.32 179 154.32 179 157.37 167.71 157.37 167.71 168.66 164.42 168.66 164.42 143.71"/>
    <path class="cls-3" d="M186.92,143.71h3.28v15.52c0,4.65,1.93,6.87,6.15,6.87s6.18-2.29,6.18-6.87v-15.52h3.28v15.47c0,6.68-3.38,10.19-9.82,10.19-6.05,0-9.07-3.42-9.07-10.19v-15.47Z"/>
    <path class="cls-3" d="M213.88,143.71h3.59l11.28,18.11c.43.69.83,1.42,1.11,2.1v-20.21h3.11v24.95h-3.55l-11.51-18.41c-.34-.52-.64-1.11-.91-1.83v20.25h-3.12v-24.95Z"/>
    <path class="cls-3" d="M261.26,159.37c-.29,6.1-4.34,10-10.23,10-6.72,0-10.9-4.99-10.9-13.58,0-7.8,4.35-12.78,11.22-12.78,5.51,0,9.21,3.17,9.74,8.17h-3.21c-.62-3.31-3.01-5.14-6.66-5.14-4.86,0-7.72,3.67-7.72,10.17s3.13,10.13,7.68,10.13c3.94,0,6.73-2.76,6.89-6.97h3.19Z"/>
    <rect class="cls-3" x="268.25" y="143.71" width="3.3" height="24.95"/>
    <path class="cls-3" d="M290.24,143.02c7.1,0,11.43,4.83,11.43,13.18s-4.33,13.18-11.43,13.18-11.43-4.84-11.43-13.18,4.36-13.18,11.43-13.18M290.24,166.4c4.98,0,8.04-3.72,8.04-10.21s-3.06-10.21-8.04-10.21-8.04,3.72-8.04,10.21,3.09,10.21,8.04,10.21"/>
    <path class="cls-3" d="M308.83,143.71h3.59l11.28,18.11c.43.69.84,1.42,1.12,2.1v-20.21h3.11v24.95h-3.54l-11.55-18.41c-.3-.52-.63-1.11-.88-1.83v20.25h-3.13v-24.95Z"/>
    <path class="cls-3" d="M348.37,143.71h9.2c6.75,0,10.4,4.25,10.4,12.1s-3.97,12.86-10.54,12.86h-9.06v-24.95ZM351.66,146.57v19.04h5.65c4.8,0,7.31-3.27,7.31-9.63s-2.62-9.41-7.31-9.41h-5.65Z"/>
    <polygon class="cls-3" points="375.17 143.71 392.38 143.71 392.38 146.78 378.42 146.78 378.42 154.25 391.31 154.25 391.31 157.17 378.42 157.17 378.42 165.54 392.66 165.54 392.66 168.66 375.17 168.66 375.17 143.71"/>
    <polygon class="cls-3" points="411.92 143.71 415.24 143.71 415.24 165.5 427.27 165.5 427.27 168.66 411.92 168.66 411.92 143.71"/>
    <path class="cls-3" d="M439.21,143.67h3.63l8.99,24.99h-3.54l-2.54-7.47h-9.52l-2.58,7.47h-3.41l8.97-24.99ZM444.76,158.28l-3.73-11-3.78,11h7.51Z"/>
    <polygon class="cls-3" points="467.04 143.71 470.43 143.71 477.39 164.61 484.12 143.71 487.55 143.71 479.05 168.66 475.63 168.66 467.04 143.71"/>
    <rect class="cls-3" x="493.27" y="143.71" width="3.29" height="24.95"/>
    <path class="cls-3" d="M504.86,143.71h9.19c6.76,0,10.42,4.25,10.42,12.1s-3.97,12.86-10.54,12.86h-9.07v-24.95ZM508.15,146.57v19.04h5.65c4.79,0,7.3-3.27,7.3-9.63s-2.61-9.41-7.3-9.41h-5.65Z"/>
    <path class="cls-3" d="M537.63,143.67h3.62l8.99,24.99h-3.54l-2.56-7.47h-9.5l-2.59,7.47h-3.4l8.97-24.99ZM543.15,158.28l-3.71-11-3.8,11h7.51Z"/>
    <path class="cls-3" d="M291.28,137.2h3.76l-4.52,4.94h-2.21l2.97-4.94Z"/>
  </g>
</svg>